<mxfile host="app.diagrams.net" modified="2024-06-05T13:05:24.672Z" agent="Mozilla/5.0 (Windows NT 10.0; Win64; x64) AppleWebKit/537.36 (KHTML, like Gecko) Chrome/122.0.0.0 Safari/537.36 Edg/122.0.0.0" version="24.4.4" etag="8fU93ZwQRfBb-SAqixE4" type="github">
  <diagram name="第 1 页" id="RLlKhSiTLTHnlZ_BGiPv">
    <mxGraphModel>
      <root>
        <mxCell id="0" />
        <mxCell id="1" parent="0" />
      </root>
    </mxGraphModel>
  </diagram>
</mxfile>
